<svg height="512pt" viewBox="0 -8 512 511" width="512pt" xmlns="http://www.w3.org/2000/svg"><path d="m385.40625 426.230469c-20.195312 0-36.570312-16.375-36.570312-36.570313v-81.585937h73.140624v81.582031c0 20.199219-16.371093 36.574219-36.570312 36.574219zm0 0" fill="#5a5a5a"/><path d="m453.859375 308.074219c17.609375 0 31.882813 14.277343 31.882813 31.882812v58.140625h-63.765626v-58.140625c0-17.609375 14.277344-31.882812 31.882813-31.882812zm0 0" fill="#e5ecec"/><path d="m270.066406 15.503906h57.101563c13.003906 0 23.542969 10.539063 23.542969 23.542969v357.921875c0 6.757812 2.535156 13.269531 7.097656 18.253906l13.53125 14.757813h-101.273438zm0 0" fill="#e5ecec"/><path d="m7.5 45.648438v442.46875h262.546875v-442.46875c0-20.792969 16.855469-37.648438 37.648437-37.648438h-262.546874c-20.792969.003906-37.648438 16.859375-37.648438 37.648438zm0 0" fill="#5a5a5a"/><path d="m29.988281 210.550781h15.003907v15.003907h-15.003907zm0 0" fill="#fff"/><path d="m67.496094 338.082031h142.535156v120.03125h-142.535156zm0 0" fill="#e5ecec"/><path d="m67.496094 188.046875h142.535156v120.027344h-142.535156zm0 0" fill="#e5ecec"/><path d="m67.496094 38.011719h142.535156v120.027343h-142.535156zm0 0" fill="#e5ecec"/><g fill="#fff"><path d="m29.988281 240.558594h15.003907v15.003906h-15.003907zm0 0"/><path d="m29.988281 270.566406h15.003907v15.003906h-15.003907zm0 0"/><path d="m29.988281 300.574219h15.003907v15.003906h-15.003907zm0 0"/><path d="m29.988281 330.582031h15.003907v15.003907h-15.003907zm0 0"/><path d="m29.988281 360.589844h15.003907v15.003906h-15.003907zm0 0"/><path d="m29.988281 390.597656h15.003907v15.003906h-15.003907zm0 0"/><path d="m29.988281 420.605469h15.003907v15h-15.003907zm0 0"/><path d="m29.988281 450.609375h15.003907v15.003906h-15.003907zm0 0"/><path d="m232.539062 210.550781h15.003907v15.003907h-15.003907zm0 0"/><path d="m232.539062 240.558594h15.003907v15.003906h-15.003907zm0 0"/><path d="m232.539062 270.566406h15.003907v15.003906h-15.003907zm0 0"/><path d="m232.539062 300.574219h15.003907v15.003906h-15.003907zm0 0"/><path d="m232.539062 330.582031h15.003907v15.003907h-15.003907zm0 0"/><path d="m232.539062 360.589844h15.003907v15.003906h-15.003907zm0 0"/><path d="m232.539062 390.597656h15.003907v15.003906h-15.003907zm0 0"/><path d="m232.539062 420.605469h15.003907v15h-15.003907zm0 0"/><path d="m232.539062 450.609375h15.003907v15.003906h-15.003907zm0 0"/></g><path d="m217.535156 465.613281h-157.539062v-135.03125h157.539062zm-142.535156-15.003906h127.53125v-105.023437h-127.53125zm0 0"/><path d="m217.535156 315.578125h-157.539062v-135.03125h157.539062zm-142.535156-15.003906h127.53125v-105.027344h-127.53125zm0 0"/><path d="m232.539062 180.546875h15.003907v15h-15.003907zm0 0" fill="#fff"/><path d="m29.988281 180.546875h15.003907v15h-15.003907zm0 0" fill="#fff"/><path d="m29.988281 60.515625h15.003907v15.003906h-15.003907zm0 0" fill="#fff"/><path d="m29.988281 90.523438h15.003907v15.003906h-15.003907zm0 0" fill="#fff"/><path d="m29.988281 120.53125h15.003907v15.003906h-15.003907zm0 0" fill="#fff"/><path d="m29.988281 150.539062h15.003907v15.003907h-15.003907zm0 0" fill="#fff"/><path d="m232.539062 60.515625h15.003907v15.003906h-15.003907zm0 0" fill="#fff"/><path d="m232.539062 90.523438h15.003907v15.003906h-15.003907zm0 0" fill="#fff"/><path d="m232.539062 120.53125h15.003907v15.003906h-15.003907zm0 0" fill="#fff"/><path d="m232.539062 150.539062h15.003907v15.003907h-15.003907zm0 0" fill="#fff"/><path d="m217.535156 165.542969h-157.539062v-135.035157h157.539062zm-142.535156-15.003907h127.53125v-105.027343h-127.53125zm0 0"/><path d="m232.539062 30.507812h15.003907v15.003907h-15.003907zm0 0" fill="#fff"/><path d="m29.988281 30.507812h15.003907v15.003907h-15.003907zm0 0" fill="#fff"/><path d="m313.203125 390.597656h15.003906v15.003906h-15.003906zm0 0"/><path d="m313.203125 360.589844h15.003906v15.003906h-15.003906zm0 0"/><path d="m313.203125 330.582031h15.003906v15.003907h-15.003906zm0 0"/><path d="m313.203125 300.574219h15.003906v15.003906h-15.003906zm0 0"/><path d="m313.203125 270.566406h15.003906v15.003906h-15.003906zm0 0"/><path d="m313.203125 240.558594h15.003906v15.003906h-15.003906zm0 0"/><path d="m313.203125 210.550781h15.003906v15.003907h-15.003906zm0 0"/><path d="m313.203125 180.546875h15.003906v15h-15.003906zm0 0"/><path d="m313.203125 150.539062h15.003906v15.003907h-15.003906zm0 0"/><path d="m313.203125 120.53125h15.003906v15.003906h-15.003906zm0 0"/><path d="m313.203125 90.523438h15.003906v15.003906h-15.003906zm0 0"/><path d="m313.203125 60.515625h15.003906v15.003906h-15.003906zm0 0"/><path d="m313.203125 30.507812h15.003906v15.003907h-15.003906zm0 0"/><path d="m384.46875 390.597656h15.003906v15.003906h-15.003906zm0 0" fill="#fff"/><path d="m384.46875 360.589844h15.003906v15.003906h-15.003906zm0 0" fill="#fff"/><path d="m384.46875 330.582031h15.003906v15.003907h-15.003906zm0 0" fill="#fff"/><path d="m444.484375 360.589844h15.003906v15.003906h-15.003906zm0 0"/><path d="m444.484375 330.582031h15.003906v15.003907h-15.003906zm0 0"/><path d="m489.496094 368.089844v-30.007813c0-20.683593-16.828125-37.507812-37.511719-37.507812h-94.402344v-254.925781c0-24.894532-20.253906-45.148438-45.148437-45.148438h-267.285156c-24.894532 0-45.148438 20.253906-45.148438 45.148438v449.972656h277.546875v-60.015625h108.480469c19.269531 0 35.652344-12.605469 41.324218-30.007813h84.648438v-15.003906c-12.410156.003906-22.503906-10.09375-22.503906-22.503906zm-226.949219 112.527344h-247.542969v-434.96875c0-16.621094 13.523438-30.144532 30.144532-30.144532h228.960937c-7.1875 8-11.5625 18.570313-11.5625 30.144532zm15-434.96875c0-16.621094 13.523437-30.144532 30.148437-30.144532h4.738282c16.621094 0 30.144531 13.523438 30.144531 30.144532v346.507812c0 10.871094 4.023437 20.816406 10.648437 28.445312h-75.679687zm136.929687 292.433593v54.074219c0 15.6875-12.761718 28.449219-28.449218 28.449219-15.683594 0-28.445313-12.761719-28.445313-28.449219v-76.578125h64.417969c-4.722656 6.273437-7.523438 14.066406-7.523438 22.503906zm15.003907 52.515625v-52.515625c0-12.410156 10.097656-22.503906 22.503906-22.503906 12.410156 0 22.507813 10.09375 22.507813 22.503906v30.007813c0 8.4375 2.800781 16.234375 7.519531 22.507812zm0 0"/></svg>