<svg height="512pt" viewBox="0 -1 512.00117 512" width="512pt" xmlns="http://www.w3.org/2000/svg"><path d="m453.4375 303.570312c40.324219-36.03125 62.46875-88.539062 57.996094-141.941406l-.632813-7.511718c-.445312-5.332032-3.21875-10.191407-7.582031-13.289063l-6.144531-4.363281c-28.3125-20.105469-62.144531-30.734375-97.835938-30.734375-7.949219 0-15.914062.554687-23.824219 1.640625-8.195312 1.128906-16.199218-3.375-19.277343-11.054688-4.480469-11.167968-10.089844-21.867187-16.769531-31.90625-17.359376-26.085937-41.175782-46.675781-68.882813-59.542968l-6.832031-3.175782c-4.851563-2.253906-10.449219-2.253906-15.300782 0l-6.835937 3.175782c-27.703125 12.867187-51.523437 33.457031-68.882813 59.542968-6.679687 10.039063-12.289062 20.738282-16.769531 31.90625-3.078125 7.679688-11.078125 12.183594-19.277343 11.054688-7.910157-1.085938-15.875-1.640625-23.824219-1.640625-35.691407 0-69.523438 10.628906-97.835938 30.734375l-6.144531 4.363281c-4.363281 3.09375-7.136719 7.957031-7.582031 13.289063l-.628907 7.511718c-4.476562 53.402344 17.667969 105.914063 57.992188 141.941406 6.738281 6.015626 8.007812 16.089844 2.972656 23.589844-30.128906 44.902344-38.558594 101.265625-20.980468 151.890625l2.472656 7.117188c1.753906 5.054687 5.648437 9.078125 10.644531 10.996093l7.03125 2.703126c18.898437 7.261718 38.929687 10.941406 59.539063 10.941406 45.679687 0 89.320312-17.890625 122.878906-50.371094.046875-.042969.09375-.085938.136718-.132812 7.121094-6.90625 18.363282-6.90625 25.484376 0 .046874.042968.089843.085937.136718.132812 33.558594 32.480469 77.199219 50.371094 122.878906 50.371094 20.609376 0 40.640626-3.679688 59.539063-10.941406l7.035156-2.703126c4.992188-1.917968 8.882813-5.941406 10.640625-10.992187l2.472656-7.121094c17.578126-50.621093 9.148438-106.988281-20.980468-151.890625-5.035156-7.5-3.765625-17.574218 2.972656-23.589844zm0 0" fill="#ff8cb5"/><path d="m397.851562 299.992188c2.589844-1.28125 5.15625-2.648438 7.703126-4.101563 38.0625-21.714844 62.492187-57.738281 69.765624-96.390625 1.324219-7.035156-4.800781-13.183594-11.855468-11.953125-3.765625.65625-7.542969 1.15625-11.230469 1.429687-8.410156.628907-13.933594-8.566406-9.417969-15.6875 2.027344-3.203124 4.308594-6.375 6.730469-9.460937 4.308594-5.5 2-13.632813-4.585937-15.953125-30.609376-10.78125-65.539063-10.578125-98.140626 2.234375-6.042968 2.375-12.796874-1.546875-13.726562-7.972656-4.984375-34.375-21.871094-64.59375-46.078125-85.816407-5.402344-4.734374-13.847656-2.414062-16.296875 4.339844-1.648438 4.539063-3.515625 9.011719-5.609375 13.175782-3.753906 7.449218-14.460937 7.449218-18.210937 0-2.101563-4.164063-3.964844-8.636719-5.609376-13.175782-2.453124-6.753906-10.898437-9.074218-16.300781-4.339844-24.207031 21.222657-41.09375 51.441407-46.078125 85.816407-.929687 6.425781-7.683594 10.347656-13.726562 7.972656-32.597656-12.8125-67.527344-13.015625-98.140625-2.234375-6.589844 2.320312-8.894531 10.453125-4.582031 15.953125 2.417968 3.085937 4.699218 6.257813 6.726562 9.460937 4.515625 7.121094-1.007812 16.316407-9.417969 15.6875-3.6875-.273437-7.464843-.773437-11.230469-1.429687-7.054687-1.230469-13.179687 4.917969-11.855468 11.953125 7.277344 38.652344 31.703125 74.675781 69.765625 96.390625 2.546875 1.453125 5.113281 2.820313 7.703125 4.101563 6.527344 3.230468 7.644531 12.097656 2.121094 16.847656-2.1875 1.882812-4.339844 3.84375-6.441407 5.878906-31.046875 30.050781-45.796875 70.289062-43.773437 109.03125.363281 6.964844 7.441406 11.535156 13.9375 8.992188 3.953125-1.546876 7.960937-2.921876 11.917968-4 8.167969-2.234376 15.34375 5.75 12.253907 13.632812-1.382813 3.519531-3.011719 7.058594-4.792969 10.539062-3.300781 6.445313.871094 14.207032 8.078125 14.890626 39.0625 3.722656 80.351563-9.671876 111.761719-40.074219 11.507812-11.140625 20.773437-23.683594 27.777344-37.03125 3.796874-7.238281 14.226562-7.238281 18.027343 0 7 13.347656 16.265625 25.890625 27.773438 37.03125 31.410156 30.402343 72.703125 43.800781 111.761719 40.074219 7.207031-.683594 11.378906-8.445313 8.078124-14.890626-1.78125-3.480468-3.410156-7.019531-4.792968-10.539062-3.089844-7.882812 4.085937-15.867188 12.253906-13.632812 3.957031 1.078124 7.964844 2.453124 11.917969 4 6.496093 2.542968 13.570312-2.023438 13.9375-8.992188 2.023437-38.742188-12.726563-78.980469-43.773438-109.03125-2.101562-2.035156-4.253906-3.996094-6.445312-5.878906-5.523438-4.75-4.40625-13.617188 2.121093-16.847656zm0 0" fill="#fc5c70"/><path d="m327.027344 257.050781h-52.375l37.035156-37.035156c3.019531-3.015625 3.019531-7.910156 0-10.925781-3.019531-3.019532-7.910156-3.019532-10.925781 0l-37.035157 37.03125v-52.375c0-4.265625-3.457031-7.722656-7.726562-7.722656-4.265625 0-7.726562 3.457031-7.726562 7.722656v52.375l-34.898438-34.898438c-3.015625-3.015625-7.90625-3.015625-10.925781 0-3.019531 3.019532-3.019531 7.910156 0 10.925782l34.898437 34.898437h-49.355468c-4.265626 0-7.726563 3.460937-7.726563 7.726563 0 4.269531 3.460937 7.726562 7.726563 7.726562h49.355468l-34.898437 34.902344c-3.019531 3.015625-3.019531 7.90625 0 10.925781 1.507812 1.507813 3.488281 2.261719 5.464843 2.261719 1.976563 0 3.953126-.753906 5.460938-2.261719l34.898438-34.898437v49.355468c0 4.265625 3.460937 7.722656 7.726562 7.722656 4.269531 0 7.726562-3.457031 7.726562-7.722656v-49.355468l37.035157 37.03125c1.507812 1.511718 3.484375 2.265624 5.464843 2.265624 1.976563 0 3.953126-.753906 5.460938-2.265624 3.019531-3.015626 3.019531-7.910157 0-10.925782l-37.03125-37.03125h52.371094c4.269531 0 7.726562-3.460937 7.726562-7.726562 0-4.269532-3.457031-7.726563-7.726562-7.726563zm0 0" fill="#f8485e"/><g fill="#ff8cb5"><path d="m275.847656 193.746094c0 10.964844-8.886718 19.851562-19.847656 19.851562s-19.847656-8.886718-19.847656-19.851562c0-10.960938 8.886718-19.847656 19.847656-19.847656s19.847656 8.886718 19.847656 19.847656zm0 0"/><path d="m326.074219 214.550781c0 10.960938-8.886719 19.847657-19.851563 19.847657-10.960937 0-19.847656-8.886719-19.847656-19.847657 0-10.960937 8.886719-19.847656 19.847656-19.847656 10.964844 0 19.851563 8.886719 19.851563 19.847656zm0 0"/><path d="m346.875 264.777344c0 10.960937-8.886719 19.847656-19.847656 19.847656-10.960938 0-19.847656-8.886719-19.847656-19.847656 0-10.964844 8.886718-19.851563 19.847656-19.851563 10.960937 0 19.847656 8.886719 19.847656 19.851563zm0 0"/><path d="m326.074219 315c0 10.960938-8.886719 19.847656-19.851563 19.847656-10.960937 0-19.847656-8.886718-19.847656-19.847656s8.886719-19.847656 19.847656-19.847656c10.964844 0 19.851563 8.886718 19.851563 19.847656zm0 0"/><path d="m275.847656 335.804688c0 10.960937-8.886718 19.847656-19.847656 19.847656s-19.847656-8.886719-19.847656-19.847656c0-10.964844 8.886718-19.851563 19.847656-19.851563s19.847656 8.886719 19.847656 19.851563zm0 0"/><path d="m225.625 315c0 10.960938-8.886719 19.847656-19.847656 19.847656-10.960938 0-19.847656-8.886718-19.847656-19.847656s8.886718-19.847656 19.847656-19.847656c10.960937 0 19.847656 8.886718 19.847656 19.847656zm0 0"/><path d="m204.824219 264.777344c0 10.960937-8.886719 19.847656-19.851563 19.847656-10.960937 0-19.847656-8.886719-19.847656-19.847656 0-10.964844 8.886719-19.851563 19.847656-19.851563 10.964844 0 19.851563 8.886719 19.851563 19.851563zm0 0"/><path d="m225.625 214.550781c0 10.960938-8.886719 19.847657-19.847656 19.847657-10.960938 0-19.847656-8.886719-19.847656-19.847657 0-10.960937 8.886718-19.847656 19.847656-19.847656 10.960937 0 19.847656 8.886719 19.847656 19.847656zm0 0"/></g></svg>