<?xml version="1.0" encoding="UTF-8"?>
<svg width="48px" height="48px" viewBox="0 0 48 48" version="1.1" xmlns="http://www.w3.org/2000/svg" xmlns:xlink="http://www.w3.org/1999/xlink">
    <!-- Generator: Sketch 50.2 (55047) - http://www.bohemiancoding.com/sketch -->
    <title>Taobao</title>
    <desc>Created with Sketch.</desc>
    <defs></defs>
    <g id="Taobao" stroke="none" stroke-width="1" fill="none" fill-rule="evenodd">
        <g fill-rule="nonzero">
            <path d="M0,24 C0,10.7451654 10.7451654,0 24,0 C37.2548346,0 48,10.7451654 48,24 C48,37.2548346 37.2548346,48 24,48 C10.7451654,48 0,37.2548346 0,24 Z" id="back" fill="#DE572C"></path>
            <g id="Page-1" transform="translate(9.600000, 12.800000)" fill="#FFFFFF">
                <path d="M5.10176,5.1516 C6.56416,5.1516 7.74816,4.0868 7.74816,2.7804 C7.74816,1.474 6.56416,0.4076 5.10176,0.4076 C3.64176,0.4076 2.45776,1.474 2.45776,2.7804 C2.45776,4.0868 3.64176,5.1516 5.10176,5.1516" id="Fill-1"></path>
                <path d="M2.9088,6.10944 L1.2488,8.66944 L4.3224,10.58624 C4.3224,10.58624 6.3688,11.63184 5.3968,13.59584 C4.476,15.45664 0,19.52944 0,19.52944 L4.0136,22.03264 C6.7848,16.01344 6.6112,16.81584 7.3088,14.65344 C8.0248,12.44224 8.1768,10.75664 6.9672,9.54224 C5.4016,7.97504 5.228,7.83024 2.9088,6.10944" id="Fill-2"></path>
                <path d="M28.92832,5.4368 C28.92832,5.4368 28.06752,-1.34 13.23152,2.8608 C13.86032,1.7584 14.17232,1.036 14.17232,1.036 L10.46432,0 C10.46432,0 8.97072,4.8712 6.30672,7.1472 C6.30672,7.1472 8.88352,8.632 8.85632,8.5904 C9.59392,7.8536 10.25232,7.1008 10.83392,6.3736 C11.42272,6.1128 11.99552,5.8728 12.55232,5.6448 C11.87072,6.8808 10.76112,8.7248 9.65232,9.8912 L11.21312,11.256 C11.21312,11.256 12.27392,10.2344 13.43792,9 L14.76592,9 L14.76592,11.2768 L9.59392,11.2768 L9.59392,13.0944 L14.76592,13.0944 L14.76592,17.4568 C14.69952,17.4544 14.63152,17.4544 14.56832,17.4464 C13.99952,17.42 13.10592,17.3256 12.76352,16.7784 C12.34192,16.1112 12.64832,14.8864 12.67232,14.1304 L9.10832,14.1304 L8.97792,14.1984 C8.97792,14.1984 7.67792,20.0472 12.74992,19.9176 C17.49392,20.0456 20.21552,18.5968 21.52032,17.5952 L22.04192,19.5296 L24.96992,18.3136 L22.99232,13.4592 L20.61072,14.1984 L21.05712,15.8632 C20.44512,16.3168 19.73952,16.6568 18.98672,16.9104 L18.98672,13.0944 L24.02672,13.0944 L24.02672,11.2768 L18.98672,11.2768 L18.98672,9 L24.04832,9 L24.04832,7.1824 L15.05712,7.1824 C15.70352,6.392 16.21152,5.6736 16.34912,5.2112 L14.78352,4.788 C21.50432,2.3848 25.24912,2.7944 25.21472,6.74 L25.21472,17.1336 C25.21472,17.1336 25.61392,20.7104 21.52032,20.4504 L19.30992,19.9736 L18.79152,22.0768 C18.79152,22.0768 28.34352,24.8032 29.12592,17.4608 C29.90592,10.1184 28.92832,5.4368 28.92832,5.4368" id="Fill-3"></path>
            </g>
        </g>
    </g>
</svg>