<?xml version="1.0" encoding="UTF-8"?>
<svg width="48px" height="48px" viewBox="0 0 48 48" version="1.1" xmlns="http://www.w3.org/2000/svg" xmlns:xlink="http://www.w3.org/1999/xlink">
    <!-- Generator: Sketch 50.2 (55047) - http://www.bohemiancoding.com/sketch -->
    <title>Weibo</title>
    <desc>Created with Sketch.</desc>
    <defs></defs>
    <g id="Weibo" stroke="none" stroke-width="1" fill="none" fill-rule="evenodd">
        <g fill-rule="nonzero">
            <path d="M24,48 C37.254834,48 48,37.254834 48,24 C48,10.745166 37.254834,0 24,0 C10.745166,0 0,10.745166 0,24 C0,37.254834 10.745166,48 24,48 Z" id="Oval" fill="#FFFFFF"></path>
            <g id="Sina_Weibo" transform="translate(9.600000, 12.800000)">
                <path d="M2.4,15.6 C2.4,18.9141362 6.6992665,21.6 12,21.6 C17.3007335,21.6 21.6,18.9141362 21.6,15.6 C21.6,12.2858638 17.3007335,9.6 12,9.6 C6.6992665,9.6 2.4,12.2858638 2.4,15.6" id="Shape" fill="#FFFFFF"></path>
                <path d="M11.944951,21.4945718 C7.23758119,21.9665391 3.17355186,19.8129402 2.86757282,16.6916099 C2.56159378,13.5663135 6.13134927,10.6551871 10.8347963,10.1832198 C15.5421662,9.71125248 19.6061955,11.8648514 19.9082518,14.9861817 C20.2181536,18.1114781 16.6483982,21.0265706 11.944951,21.4945718 M21.355768,11.1231884 C20.9556416,11.0002389 20.681045,10.9209166 20.8889538,10.3894576 C21.3439996,9.23531896 21.3910733,8.2398248 20.8967994,7.52592463 C19.9749395,6.19331094 17.448651,6.26470096 14.5536186,7.49022962 C14.5536186,7.49022962 13.643527,7.89080696 13.8788955,7.16500842 C14.3221729,5.71737748 14.2554851,4.50771326 13.5650709,3.8057114 C11.9959476,2.21530042 7.81815681,3.86520309 4.2366329,7.48626351 C1.55735487,10.1951182 0,13.0705494 0,15.5573018 C0,20.3087042 6.02935626,23.2 11.925337,23.2 C19.6571921,23.2 24.7999937,18.6588015 24.7999937,15.0536056 C24.8039165,12.8722438 22.9876562,11.6348169 21.355768,11.1231884" id="Shape" fill="#E6162D"></path>
                <path d="M26.7755926,2.43849152 C24.8262562,0.405242291 21.9513943,-0.368778722 19.2976758,0.16263869 C18.683389,0.285865916 18.2943408,0.85579184 18.4253886,1.42956861 C18.5564364,2.00719623 19.1584374,2.37302706 19.7727242,2.24979983 C21.6606319,1.87241645 23.7041591,2.42308812 25.0883518,3.86715717 C26.4725446,5.31122622 26.849307,7.27901099 26.2554966,9.00419216 C26.0630201,9.5664164 26.3906397,10.1671491 26.9885454,10.3481391 C27.5864511,10.529129 28.2253093,10.221061 28.4177858,9.66268768 L28.4177858,9.6588368 C29.2532158,7.23665163 28.7249291,4.4678899 26.7755926,2.43849152" id="Shape" fill="#FF9933"></path>
                <path d="M23.7789973,5.24299259 C22.7936643,4.2056589 21.3411478,3.81009974 20.0033034,4.08456936 C19.4554244,4.19354994 19.1071602,4.71019863 19.2218326,5.23088364 C19.340752,5.75156865 19.8801369,6.08254671 20.4237688,5.96952981 C21.077826,5.83633132 21.791343,6.03007458 22.271268,6.53461431 C22.7511931,7.04319037 22.882854,7.73340072 22.6747449,8.3388484 C22.5048598,8.84338816 22.7936643,9.38829104 23.3288021,9.55378008 C23.8639398,9.7152328 24.4330545,9.4407632 24.6071866,8.93218712 C25.0276519,7.69303754 24.7643302,6.28032629 23.7789973,5.24299259" id="Shape" fill="#FF9933"></path>
                <path d="M12.7091332,16.2268542 C12.5336854,16.5139088 12.145194,16.6494624 11.8444264,16.5298563 C11.5436589,16.414237 11.4517577,16.0913006 11.6230281,15.8122198 C11.7984758,15.5331389 12.170258,15.3975853 12.4668482,15.5092176 C12.7676158,15.6128762 12.8762263,15.9358127 12.7091332,16.2268542 M11.1092168,18.1804204 C10.6246468,18.9179913 9.58449232,19.2409278 8.80333208,18.9020438 C8.03470384,18.5671467 7.80495084,17.7099698 8.2895208,16.9883463 C8.76991344,16.2707098 9.77247208,15.9517602 10.549455,16.262736 C11.3347925,16.5856725 11.5854322,17.4348758 11.1092168,18.1804204 M12.9305315,12.957621 C10.5452776,12.3635774 7.85090144,13.4998353 6.81492425,15.5052308 C5.75806042,17.550495 6.78150563,19.8230107 9.18764624,20.5645685 C11.685688,21.3340344 14.6265265,20.153921 15.6499717,17.9491819 C16.6608849,15.7882986 15.399332,13.5676121 12.9305315,12.957621" id="Shape" fill="#000000"></path>
            </g>
        </g>
    </g>
</svg>